<?xml version="1.0" standalone="no"?>
<!DOCTYPE svg PUBLIC "-//W3C//DTD SVG 1.1//EN" "http://www.w3.org/Graphics/SVG/1.1/DTD/svg11.dtd">
<svg version="1.1" width="1200" height="374" onload="init(evt)" viewBox="0 0 1200 374" xmlns="http://www.w3.org/2000/svg" xmlns:xlink="http://www.w3.org/1999/xlink">
<style type="text/css">
	text { font-family:Verdana; font-size:12px; fill:rgb(0,0,0); }
	#search { opacity:0.1; cursor:pointer; }
	#search:hover, #search.show { opacity:1; }
	#subtitle { text-anchor:middle; font-color:rgb(160,160,160); }
	#title { text-anchor:middle; font-size:17px}
	#unzoom { cursor:pointer; }
	#frames > *:hover { stroke:black; stroke-width:0.5; cursor:pointer; }
	.hide { display:none; }
	.parent { opacity:0.5; }
</style>
<script type="text/ecmascript">
<![CDATA[
	"use strict";
	var details, searchbtn, unzoombtn, matchedtxt, svg, searching;
	function init(evt) {
		details = document.getElementById("details").firstChild;
		searchbtn = document.getElementById("search");
		unzoombtn = document.getElementById("unzoom");
		matchedtxt = document.getElementById("matched");
		svg = document.getElementsByTagName("svg")[0];
		searching = 0;
	}

	window.addEventListener("click", function(e) {
		var target = find_group(e.target);
		if (target) {
			if (target.nodeName == "a") {
				if (e.ctrlKey === false) return;
				e.preventDefault();
			}
			if (target.classList.contains("parent")) unzoom();
			zoom(target);
		}
		else if (e.target.id == "unzoom") unzoom();
		else if (e.target.id == "search") search_prompt();
	}, false)

	// mouse-over for info
	// show
	window.addEventListener("mouseover", function(e) {
		var target = find_group(e.target);
		if (target) details.nodeValue = "Function: " + g_to_text(target);
	}, false)

	// clear
	window.addEventListener("mouseout", function(e) {
		var target = find_group(e.target);
		if (target) details.nodeValue = ' ';
	}, false)

	// ctrl-F for search
	window.addEventListener("keydown",function (e) {
		if (e.keyCode === 114 || (e.ctrlKey && e.keyCode === 70)) {
			e.preventDefault();
			search_prompt();
		}
	}, false)

	// functions
	function find_child(node, selector) {
		var children = node.querySelectorAll(selector);
		if (children.length) return children[0];
		return;
	}
	function find_group(node) {
		var parent = node.parentElement;
		if (!parent) return;
		if (parent.id == "frames") return node;
		return find_group(parent);
	}
	function orig_save(e, attr, val) {
		if (e.attributes["_orig_" + attr] != undefined) return;
		if (e.attributes[attr] == undefined) return;
		if (val == undefined) val = e.attributes[attr].value;
		e.setAttribute("_orig_" + attr, val);
	}
	function orig_load(e, attr) {
		if (e.attributes["_orig_"+attr] == undefined) return;
		e.attributes[attr].value = e.attributes["_orig_" + attr].value;
		e.removeAttribute("_orig_"+attr);
	}
	function g_to_text(e) {
		var text = find_child(e, "title").firstChild.nodeValue;
		return (text)
	}
	function g_to_func(e) {
		var func = g_to_text(e);
		// if there's any manipulation we want to do to the function
		// name before it's searched, do it here before returning.
		return (func);
	}
	function update_text(e) {
		var r = find_child(e, "rect");
		var t = find_child(e, "text");
		var w = parseFloat(r.attributes.width.value) -3;
		var txt = find_child(e, "title").textContent.replace(/\([^(]*\)$/,"");
		t.attributes.x.value = parseFloat(r.attributes.x.value) + 3;

		// Smaller than this size won't fit anything
		if (w < 2 * 12 * 0.59) {
			t.textContent = "";
			return;
		}

		t.textContent = txt;
		// Fit in full text width
		if (/^ *$/.test(txt) || t.getSubStringLength(0, txt.length) < w)
			return;

		for (var x = txt.length - 2; x > 0; x--) {
			if (t.getSubStringLength(0, x + 2) <= w) {
				t.textContent = txt.substring(0, x) + "..";
				return;
			}
		}
		t.textContent = "";
	}

	// zoom
	function zoom_reset(e) {
		if (e.attributes != undefined) {
			orig_load(e, "x");
			orig_load(e, "width");
		}
		if (e.childNodes == undefined) return;
		for (var i = 0, c = e.childNodes; i < c.length; i++) {
			zoom_reset(c[i]);
		}
	}
	function zoom_child(e, x, ratio) {
		if (e.attributes != undefined) {
			if (e.attributes.x != undefined) {
				orig_save(e, "x");
				e.attributes.x.value = (parseFloat(e.attributes.x.value) - x - 10) * ratio + 10;
				if (e.tagName == "text")
					e.attributes.x.value = find_child(e.parentNode, "rect[x]").attributes.x.value + 3;
			}
			if (e.attributes.width != undefined) {
				orig_save(e, "width");
				e.attributes.width.value = parseFloat(e.attributes.width.value) * ratio;
			}
		}

		if (e.childNodes == undefined) return;
		for (var i = 0, c = e.childNodes; i < c.length; i++) {
			zoom_child(c[i], x - 10, ratio);
		}
	}
	function zoom_parent(e) {
		if (e.attributes) {
			if (e.attributes.x != undefined) {
				orig_save(e, "x");
				e.attributes.x.value = 10;
			}
			if (e.attributes.width != undefined) {
				orig_save(e, "width");
				e.attributes.width.value = parseInt(svg.width.baseVal.value) - (10 * 2);
			}
		}
		if (e.childNodes == undefined) return;
		for (var i = 0, c = e.childNodes; i < c.length; i++) {
			zoom_parent(c[i]);
		}
	}
	function zoom(node) {
		var attr = find_child(node, "rect").attributes;
		var width = parseFloat(attr.width.value);
		var xmin = parseFloat(attr.x.value);
		var xmax = parseFloat(xmin + width);
		var ymin = parseFloat(attr.y.value);
		var ratio = (svg.width.baseVal.value - 2 * 10) / width;

		// XXX: Workaround for JavaScript float issues (fix me)
		var fudge = 0.0001;

		unzoombtn.classList.remove("hide");

		var el = document.getElementById("frames").children;
		for (var i = 0; i < el.length; i++) {
			var e = el[i];
			var a = find_child(e, "rect").attributes;
			var ex = parseFloat(a.x.value);
			var ew = parseFloat(a.width.value);
			var upstack;
			// Is it an ancestor
			if (0 == 0) {
				upstack = parseFloat(a.y.value) > ymin;
			} else {
				upstack = parseFloat(a.y.value) < ymin;
			}
			if (upstack) {
				// Direct ancestor
				if (ex <= xmin && (ex+ew+fudge) >= xmax) {
					e.classList.add("parent");
					zoom_parent(e);
					update_text(e);
				}
				// not in current path
				else
					e.classList.add("hide");
			}
			// Children maybe
			else {
				// no common path
				if (ex < xmin || ex + fudge >= xmax) {
					e.classList.add("hide");
				}
				else {
					zoom_child(e, xmin, ratio);
					update_text(e);
				}
			}
		}
	}
	function unzoom() {
		unzoombtn.classList.add("hide");
		var el = document.getElementById("frames").children;
		for(var i = 0; i < el.length; i++) {
			el[i].classList.remove("parent");
			el[i].classList.remove("hide");
			zoom_reset(el[i]);
			update_text(el[i]);
		}
	}

	// search
	function reset_search() {
		var el = document.querySelectorAll("#frames rect");
		for (var i = 0; i < el.length; i++) {
			orig_load(el[i], "fill")
		}
	}
	function search_prompt() {
		if (!searching) {
			var term = prompt("Enter a search term (regexp " +
			    "allowed, eg: ^ext4_)", "");
			if (term != null) {
				search(term)
			}
		} else {
			reset_search();
			searching = 0;
			searchbtn.classList.remove("show");
			searchbtn.firstChild.nodeValue = "Search"
			matchedtxt.classList.add("hide");
			matchedtxt.firstChild.nodeValue = ""
		}
	}
	function search(term) {
		var re = new RegExp(term);
		var el = document.getElementById("frames").children;
		var matches = new Object();
		var maxwidth = 0;
		for (var i = 0; i < el.length; i++) {
			var e = el[i];
			var func = g_to_func(e);
			var rect = find_child(e, "rect");
			if (func == null || rect == null)
				continue;

			// Save max width. Only works as we have a root frame
			var w = parseFloat(rect.attributes.width.value);
			if (w > maxwidth)
				maxwidth = w;

			if (func.match(re)) {
				// highlight
				var x = parseFloat(rect.attributes.x.value);
				orig_save(rect, "fill");
				rect.attributes.fill.value = "rgb(230,0,230)";

				// remember matches
				if (matches[x] == undefined) {
					matches[x] = w;
				} else {
					if (w > matches[x]) {
						// overwrite with parent
						matches[x] = w;
					}
				}
				searching = 1;
			}
		}
		if (!searching)
			return;

		searchbtn.classList.add("show");
		searchbtn.firstChild.nodeValue = "Reset Search";

		// calculate percent matched, excluding vertical overlap
		var count = 0;
		var lastx = -1;
		var lastw = 0;
		var keys = Array();
		for (k in matches) {
			if (matches.hasOwnProperty(k))
				keys.push(k);
		}
		// sort the matched frames by their x location
		// ascending, then width descending
		keys.sort(function(a, b){
			return a - b;
		});
		// Step through frames saving only the biggest bottom-up frames
		// thanks to the sort order. This relies on the tree property
		// where children are always smaller than their parents.
		var fudge = 0.0001;	// JavaScript floating point
		for (var k in keys) {
			var x = parseFloat(keys[k]);
			var w = matches[keys[k]];
			if (x >= lastx + lastw - fudge) {
				count += w;
				lastx = x;
				lastw = w;
			}
		}
		// display matched percent
		matchedtxt.classList.remove("hide");
		var pct = 100 * count / maxwidth;
		if (pct != 100) pct = pct.toFixed(1)
		matchedtxt.firstChild.nodeValue = "Matched: " + pct + "%";
	}
]]>
</script>
<rect x="0" y="0" width="100%" height="100%" fill="rgb(240,240,220)"/>
<text id="title" x="600" y="24">Flame Graph</text>
<text id="details" x="10" y="357"> </text>
<text id="unzoom" x="10" y="24" class="hide">Reset Zoom</text>
<text id="search" x="1090" y="24">Search</text>
<text id="matched" x="1090" y="357"> </text>
<g id="frames">
<g>
<title>all (102 samples, 100.00%)</title><rect x="10.0" y="323.0" width="1180.0" height="15" fill="#fc7e7e" rx="2" ry="2"/>
<text x="13.0" y="334.0">all</text>
</g>
<g>
<title>[NIO Acceptor 0.0.0.0:8080 tid=2812] (8 samples, 7.84%)</title><rect x="10.0" y="307.0" width="92.5" height="15" fill="#e86363" rx="2" ry="2"/>
<text x="13.0" y="318.0">[NIO Accept..</text>
</g>
<g>
<title>one/nio/server/AcceptorThread.run (8 samples, 7.84%)</title><rect x="10.0" y="291.0" width="92.5" height="15" fill="#55e655" rx="2" ry="2"/>
<text x="13.0" y="302.0">one/nio/ser..</text>
</g>
<g>
<title>one/nio/http/HttpServer.createSession (7 samples, 6.86%)</title><rect x="10.0" y="275.0" width="81.0" height="15" fill="#5ced5c" rx="2" ry="2"/>
<text x="13.0" y="286.0">one/nio/h..</text>
</g>
<g>
<title>one/nio/http/HttpServer.createSession (7 samples, 6.86%)</title><rect x="10.0" y="259.0" width="81.0" height="15" fill="#57e857" rx="2" ry="2"/>
<text x="13.0" y="270.0">one/nio/h..</text>
</g>
<g>
<title>one.nio.http.HttpSession (1 samples, 0.98%)</title><rect x="10.0" y="243.0" width="11.6" height="15" fill="#57c5c5" rx="2" ry="2"/>
<text x="13.0" y="254.0"></text>
</g>
<g>
<title>one/nio/http/HttpSession.&lt;init&gt; (6 samples, 5.88%)</title><rect x="21.6" y="243.0" width="69.4" height="15" fill="#5ff05f" rx="2" ry="2"/>
<text x="24.6" y="254.0">one/nio..</text>
</g>
<g>
<title>byte[] (5 samples, 4.90%)</title><rect x="21.6" y="227.0" width="57.8" height="15" fill="#55c3c3" rx="2" ry="2"/>
<text x="24.6" y="238.0">byte[]</text>
</g>
<g>
<title>byte[] (1 samples, 0.98%)</title><rect x="79.4" y="227.0" width="11.6" height="15" fill="#f08c00" rx="2" ry="2"/>
<text x="82.4" y="238.0"></text>
</g>
<g>
<title>one/nio/net/NativeSocket.acceptNonBlocking (1 samples, 0.98%)</title><rect x="91.0" y="275.0" width="11.5" height="15" fill="#64f564" rx="2" ry="2"/>
<text x="94.0" y="286.0"></text>
</g>
<g>
<title>one.nio.net.NativeSocket (1 samples, 0.98%)</title><rect x="91.0" y="259.0" width="11.5" height="15" fill="#52c0c0" rx="2" ry="2"/>
<text x="94.0" y="270.0"></text>
</g>
<g>
<title>[NIO Selector #0 tid=2808] (27 samples, 26.47%)</title><rect x="102.5" y="307.0" width="312.4" height="15" fill="#e66161" rx="2" ry="2"/>
<text x="105.5" y="318.0">[NIO Selector #0 tid=2808]</text>
</g>
<g>
<title>one/nio/server/SelectorThread.run (27 samples, 26.47%)</title><rect x="102.5" y="291.0" width="312.4" height="15" fill="#5ced5c" rx="2" ry="2"/>
<text x="105.5" y="302.0">one/nio/server/SelectorThread.run</text>
</g>
<g>
<title>one/nio/net/Session.process (27 samples, 26.47%)</title><rect x="102.5" y="275.0" width="312.4" height="15" fill="#51e251" rx="2" ry="2"/>
<text x="105.5" y="286.0">one/nio/net/Session.process</text>
</g>
<g>
<title>one/nio/http/HttpSession.processRead (27 samples, 26.47%)</title><rect x="102.5" y="259.0" width="312.4" height="15" fill="#59ea59" rx="2" ry="2"/>
<text x="105.5" y="270.0">one/nio/http/HttpSession.processRead</text>
</g>
<g>
<title>one/nio/http/HttpSession.processHttpBuffer (26 samples, 25.49%)</title><rect x="102.5" y="243.0" width="300.8" height="15" fill="#68f968" rx="2" ry="2"/>
<text x="105.5" y="254.0">one/nio/http/HttpSession.processHttpBuffer</text>
</g>
<g>
<title>one/nio/http/HttpSession.handleParsedRequest (18 samples, 17.65%)</title><rect x="102.5" y="227.0" width="208.3" height="15" fill="#6afb6a" rx="2" ry="2"/>
<text x="105.5" y="238.0">one/nio/http/HttpSession.ha..</text>
</g>
<g>
<title>one/nio/http/HttpServer.handleRequest (18 samples, 17.65%)</title><rect x="102.5" y="211.0" width="208.3" height="15" fill="#51e251" rx="2" ry="2"/>
<text x="105.5" y="222.0">one/nio/http/HttpServer.han..</text>
</g>
<g>
<title>RequestHandler0_entity.handleRequest (18 samples, 17.65%)</title><rect x="102.5" y="195.0" width="208.3" height="15" fill="#51e251" rx="2" ry="2"/>
<text x="105.5" y="206.0">RequestHandler0_entity.hand..</text>
</g>
<g>
<title>one/nio/http/Request.getParameter (1 samples, 0.98%)</title><rect x="102.5" y="179.0" width="11.6" height="15" fill="#6afb6a" rx="2" ry="2"/>
<text x="105.5" y="190.0"></text>
</g>
<g>
<title>java/lang/String.substring (1 samples, 0.98%)</title><rect x="102.5" y="163.0" width="11.6" height="15" fill="#61f261" rx="2" ry="2"/>
<text x="105.5" y="174.0"></text>
</g>
<g>
<title>java/lang/StringLatin1.newString (1 samples, 0.98%)</title><rect x="102.5" y="147.0" width="11.6" height="15" fill="#67f867" rx="2" ry="2"/>
<text x="105.5" y="158.0"></text>
</g>
<g>
<title>java.lang.String (1 samples, 0.98%)</title><rect x="102.5" y="131.0" width="11.6" height="15" fill="#51bfbf" rx="2" ry="2"/>
<text x="105.5" y="142.0"></text>
</g>
<g>
<title>ru/mail/polis/service/impl/MyHttpServer.entity (17 samples, 16.67%)</title><rect x="114.1" y="179.0" width="196.7" height="15" fill="#67f867" rx="2" ry="2"/>
<text x="117.1" y="190.0">ru/mail/polis/service/impl..</text>
</g>
<g>
<title>one/nio/http/Response.&lt;init&gt; (2 samples, 1.96%)</title><rect x="114.1" y="163.0" width="23.2" height="15" fill="#66f766" rx="2" ry="2"/>
<text x="117.1" y="174.0">o..</text>
</g>
<g>
<title>byte[] (1 samples, 0.98%)</title><rect x="114.1" y="147.0" width="11.6" height="15" fill="#59c7c7" rx="2" ry="2"/>
<text x="117.1" y="158.0"></text>
</g>
<g>
<title>java.lang.String[] (1 samples, 0.98%)</title><rect x="125.7" y="147.0" width="11.6" height="15" fill="#57c5c5" rx="2" ry="2"/>
<text x="128.7" y="158.0"></text>
</g>
<g>
<title>ru/mail/polis/dao/impl/RocksDAO.upsert (15 samples, 14.71%)</title><rect x="137.3" y="163.0" width="173.5" height="15" fill="#60f160" rx="2" ry="2"/>
<text x="140.3" y="174.0">ru/mail/polis/dao/impl..</text>
</g>
<g>
<title>org/rocksdb/RocksDB.put (14 samples, 13.73%)</title><rect x="137.3" y="147.0" width="161.9" height="15" fill="#55e655" rx="2" ry="2"/>
<text x="140.3" y="158.0">org/rocksdb/RocksDB.put</text>
</g>
<g>
<title>org/rocksdb/RocksDB.put (14 samples, 13.73%)</title><rect x="137.3" y="131.0" width="161.9" height="15" fill="#6afb6a" rx="2" ry="2"/>
<text x="140.3" y="142.0">org/rocksdb/RocksDB.put</text>
</g>
<g>
<title>org/rocksdb/util/BytewiseComparator.compare (14 samples, 13.73%)</title><rect x="137.3" y="115.0" width="161.9" height="15" fill="#64f564" rx="2" ry="2"/>
<text x="140.3" y="126.0">org/rocksdb/util/Byte..</text>
</g>
<g>
<title>org/rocksdb/util/BytewiseComparator.compare (14 samples, 13.73%)</title><rect x="137.3" y="99.0" width="161.9" height="15" fill="#53e453" rx="2" ry="2"/>
<text x="140.3" y="110.0">org/rocksdb/util/Byte..</text>
</g>
<g>
<title>org/rocksdb/AbstractSlice.data (14 samples, 13.73%)</title><rect x="137.3" y="83.0" width="161.9" height="15" fill="#53e453" rx="2" ry="2"/>
<text x="140.3" y="94.0">org/rocksdb/AbstractS..</text>
</g>
<g>
<title>org/rocksdb/Slice.data0 (14 samples, 13.73%)</title><rect x="137.3" y="67.0" width="161.9" height="15" fill="#69fa69" rx="2" ry="2"/>
<text x="140.3" y="78.0">org/rocksdb/Slice.data0</text>
</g>
<g>
<title>org/rocksdb/Slice.data0 (14 samples, 13.73%)</title><rect x="137.3" y="51.0" width="161.9" height="15" fill="#5ff05f" rx="2" ry="2"/>
<text x="140.3" y="62.0">org/rocksdb/Slice.data0</text>
</g>
<g>
<title>byte[] (14 samples, 13.73%)</title><rect x="137.3" y="35.0" width="161.9" height="15" fill="#5ac8c8" rx="2" ry="2"/>
<text x="140.3" y="46.0">byte[]</text>
</g>
<g>
<title>ru/mail/polis/dao/impl/RocksDAO.deepCopy (1 samples, 0.98%)</title><rect x="299.2" y="147.0" width="11.6" height="15" fill="#52e352" rx="2" ry="2"/>
<text x="302.2" y="158.0"></text>
</g>
<g>
<title>java/nio/ByteBuffer.allocate (1 samples, 0.98%)</title><rect x="299.2" y="131.0" width="11.6" height="15" fill="#51e251" rx="2" ry="2"/>
<text x="302.2" y="142.0"></text>
</g>
<g>
<title>java.nio.HeapByteBuffer (1 samples, 0.98%)</title><rect x="299.2" y="115.0" width="11.6" height="15" fill="#60cece" rx="2" ry="2"/>
<text x="302.2" y="126.0"></text>
</g>
<g>
<title>one/nio/http/HttpSession.parseRequest (3 samples, 2.94%)</title><rect x="310.8" y="227.0" width="34.7" height="15" fill="#61f261" rx="2" ry="2"/>
<text x="313.8" y="238.0">on..</text>
</g>
<g>
<title>one/nio/http/Request.&lt;init&gt; (2 samples, 1.96%)</title><rect x="310.8" y="211.0" width="23.1" height="15" fill="#65f665" rx="2" ry="2"/>
<text x="313.8" y="222.0">o..</text>
</g>
<g>
<title>java.lang.String[] (2 samples, 1.96%)</title><rect x="310.8" y="195.0" width="23.1" height="15" fill="#63d1d1" rx="2" ry="2"/>
<text x="313.8" y="206.0">j..</text>
</g>
<g>
<title>one/nio/util/Utf8.read (1 samples, 0.98%)</title><rect x="333.9" y="211.0" width="11.6" height="15" fill="#67f867" rx="2" ry="2"/>
<text x="336.9" y="222.0"></text>
</g>
<g>
<title>one/nio/util/Utf8.read (1 samples, 0.98%)</title><rect x="333.9" y="195.0" width="11.6" height="15" fill="#54e554" rx="2" ry="2"/>
<text x="336.9" y="206.0"></text>
</g>
<g>
<title>char[] (1 samples, 0.98%)</title><rect x="333.9" y="179.0" width="11.6" height="15" fill="#64d2d2" rx="2" ry="2"/>
<text x="336.9" y="190.0"></text>
</g>
<g>
<title>one/nio/util/Utf8.read (5 samples, 4.90%)</title><rect x="345.5" y="227.0" width="57.8" height="15" fill="#52e352" rx="2" ry="2"/>
<text x="348.5" y="238.0">one/ni..</text>
</g>
<g>
<title>one/nio/util/Utf8.read (5 samples, 4.90%)</title><rect x="345.5" y="211.0" width="57.8" height="15" fill="#6dfe6d" rx="2" ry="2"/>
<text x="348.5" y="222.0">one/ni..</text>
</g>
<g>
<title>char[] (3 samples, 2.94%)</title><rect x="345.5" y="195.0" width="34.7" height="15" fill="#61cfcf" rx="2" ry="2"/>
<text x="348.5" y="206.0">ch..</text>
</g>
<g>
<title>java.lang.String (1 samples, 0.98%)</title><rect x="380.2" y="195.0" width="11.6" height="15" fill="#54c2c2" rx="2" ry="2"/>
<text x="383.2" y="206.0"></text>
</g>
<g>
<title>java/lang/String.&lt;init&gt; (1 samples, 0.98%)</title><rect x="391.8" y="195.0" width="11.5" height="15" fill="#50e150" rx="2" ry="2"/>
<text x="394.8" y="206.0"></text>
</g>
<g>
<title>java/lang/String.&lt;init&gt; (1 samples, 0.98%)</title><rect x="391.8" y="179.0" width="11.5" height="15" fill="#5dee5d" rx="2" ry="2"/>
<text x="394.8" y="190.0"></text>
</g>
<g>
<title>java/lang/StringUTF16.compress (1 samples, 0.98%)</title><rect x="391.8" y="163.0" width="11.5" height="15" fill="#65f665" rx="2" ry="2"/>
<text x="394.8" y="174.0"></text>
</g>
<g>
<title>byte[] (1 samples, 0.98%)</title><rect x="391.8" y="147.0" width="11.5" height="15" fill="#68d6d6" rx="2" ry="2"/>
<text x="394.8" y="158.0"></text>
</g>
<g>
<title>one/nio/net/Session.read (1 samples, 0.98%)</title><rect x="403.3" y="243.0" width="11.6" height="15" fill="#5ff05f" rx="2" ry="2"/>
<text x="406.3" y="254.0"></text>
</g>
<g>
<title>one/nio/net/NativeSocket.read (1 samples, 0.98%)</title><rect x="403.3" y="227.0" width="11.6" height="15" fill="#5ff05f" rx="2" ry="2"/>
<text x="406.3" y="238.0"></text>
</g>
<g>
<title>one/nio/net/SocketClosedException.&lt;init&gt; (1 samples, 0.98%)</title><rect x="403.3" y="211.0" width="11.6" height="15" fill="#60f160" rx="2" ry="2"/>
<text x="406.3" y="222.0"></text>
</g>
<g>
<title>java/net/SocketException.&lt;init&gt; (1 samples, 0.98%)</title><rect x="403.3" y="195.0" width="11.6" height="15" fill="#68f968" rx="2" ry="2"/>
<text x="406.3" y="206.0"></text>
</g>
<g>
<title>java/io/IOException.&lt;init&gt; (1 samples, 0.98%)</title><rect x="403.3" y="179.0" width="11.6" height="15" fill="#66f766" rx="2" ry="2"/>
<text x="406.3" y="190.0"></text>
</g>
<g>
<title>java/lang/Exception.&lt;init&gt; (1 samples, 0.98%)</title><rect x="403.3" y="163.0" width="11.6" height="15" fill="#53e453" rx="2" ry="2"/>
<text x="406.3" y="174.0"></text>
</g>
<g>
<title>java/lang/Throwable.&lt;init&gt; (1 samples, 0.98%)</title><rect x="403.3" y="147.0" width="11.6" height="15" fill="#50e150" rx="2" ry="2"/>
<text x="406.3" y="158.0"></text>
</g>
<g>
<title>java/lang/Throwable.fillInStackTrace (1 samples, 0.98%)</title><rect x="403.3" y="131.0" width="11.6" height="15" fill="#62f362" rx="2" ry="2"/>
<text x="406.3" y="142.0"></text>
</g>
<g>
<title>java/lang/Throwable.fillInStackTrace (1 samples, 0.98%)</title><rect x="403.3" y="115.0" width="11.6" height="15" fill="#68f968" rx="2" ry="2"/>
<text x="406.3" y="126.0"></text>
</g>
<g>
<title>java.lang.Object[] (1 samples, 0.98%)</title><rect x="403.3" y="99.0" width="11.6" height="15" fill="#54c2c2" rx="2" ry="2"/>
<text x="406.3" y="110.0"></text>
</g>
<g>
<title>[NIO Selector #1 tid=2809] (22 samples, 21.57%)</title><rect x="414.9" y="307.0" width="254.5" height="15" fill="#f77878" rx="2" ry="2"/>
<text x="417.9" y="318.0">[NIO Selector #1 tid=2809]</text>
</g>
<g>
<title>one/nio/server/SelectorThread.run (22 samples, 21.57%)</title><rect x="414.9" y="291.0" width="254.5" height="15" fill="#63f463" rx="2" ry="2"/>
<text x="417.9" y="302.0">one/nio/server/SelectorThread.run</text>
</g>
<g>
<title>one/nio/net/NativeSelector.select (2 samples, 1.96%)</title><rect x="414.9" y="275.0" width="23.1" height="15" fill="#64f564" rx="2" ry="2"/>
<text x="417.9" y="286.0">o..</text>
</g>
<g>
<title>one.nio.net.NativeSelector$2 (2 samples, 1.96%)</title><rect x="414.9" y="259.0" width="23.1" height="15" fill="#53c1c1" rx="2" ry="2"/>
<text x="417.9" y="270.0">o..</text>
</g>
<g>
<title>one/nio/net/Session.process (20 samples, 19.61%)</title><rect x="438.0" y="275.0" width="231.4" height="15" fill="#66f766" rx="2" ry="2"/>
<text x="441.0" y="286.0">one/nio/net/Session.process</text>
</g>
<g>
<title>one/nio/http/HttpSession.processRead (20 samples, 19.61%)</title><rect x="438.0" y="259.0" width="231.4" height="15" fill="#65f665" rx="2" ry="2"/>
<text x="441.0" y="270.0">one/nio/http/HttpSession.proces..</text>
</g>
<g>
<title>one/nio/http/HttpSession.processHttpBuffer (20 samples, 19.61%)</title><rect x="438.0" y="243.0" width="231.4" height="15" fill="#63f463" rx="2" ry="2"/>
<text x="441.0" y="254.0">one/nio/http/HttpSession.proces..</text>
</g>
<g>
<title>one/nio/http/HttpSession.handleParsedRequest (15 samples, 14.71%)</title><rect x="438.0" y="227.0" width="173.6" height="15" fill="#5aeb5a" rx="2" ry="2"/>
<text x="441.0" y="238.0">one/nio/http/HttpSessi..</text>
</g>
<g>
<title>one/nio/http/HttpServer.handleRequest (15 samples, 14.71%)</title><rect x="438.0" y="211.0" width="173.6" height="15" fill="#5dee5d" rx="2" ry="2"/>
<text x="441.0" y="222.0">one/nio/http/HttpServe..</text>
</g>
<g>
<title>RequestHandler0_entity.handleRequest (15 samples, 14.71%)</title><rect x="438.0" y="195.0" width="173.6" height="15" fill="#58e958" rx="2" ry="2"/>
<text x="441.0" y="206.0">RequestHandler0_entity..</text>
</g>
<g>
<title>one/nio/http/HttpSession.sendResponse (1 samples, 0.98%)</title><rect x="438.0" y="179.0" width="11.6" height="15" fill="#53e453" rx="2" ry="2"/>
<text x="441.0" y="190.0"></text>
</g>
<g>
<title>one/nio/http/HttpSession.writeResponse (1 samples, 0.98%)</title><rect x="438.0" y="163.0" width="11.6" height="15" fill="#61f261" rx="2" ry="2"/>
<text x="441.0" y="174.0"></text>
</g>
<g>
<title>one/nio/http/Response.toBytes (1 samples, 0.98%)</title><rect x="438.0" y="147.0" width="11.6" height="15" fill="#6dfe6d" rx="2" ry="2"/>
<text x="441.0" y="158.0"></text>
</g>
<g>
<title>one/nio/util/ByteArrayBuilder.&lt;init&gt; (1 samples, 0.98%)</title><rect x="438.0" y="131.0" width="11.6" height="15" fill="#55e655" rx="2" ry="2"/>
<text x="441.0" y="142.0"></text>
</g>
<g>
<title>byte[] (1 samples, 0.98%)</title><rect x="438.0" y="115.0" width="11.6" height="15" fill="#61cfcf" rx="2" ry="2"/>
<text x="441.0" y="126.0"></text>
</g>
<g>
<title>ru/mail/polis/service/impl/MyHttpServer.entity (14 samples, 13.73%)</title><rect x="449.6" y="179.0" width="162.0" height="15" fill="#60f160" rx="2" ry="2"/>
<text x="452.6" y="190.0">ru/mail/polis/service..</text>
</g>
<g>
<title>one.nio.http.Response (1 samples, 0.98%)</title><rect x="449.6" y="163.0" width="11.6" height="15" fill="#59c7c7" rx="2" ry="2"/>
<text x="452.6" y="174.0"></text>
</g>
<g>
<title>ru/mail/polis/dao/impl/RocksDAO.upsert (13 samples, 12.75%)</title><rect x="461.2" y="163.0" width="150.4" height="15" fill="#62f362" rx="2" ry="2"/>
<text x="464.2" y="174.0">ru/mail/polis/dao/i..</text>
</g>
<g>
<title>org/rocksdb/RocksDB.put (10 samples, 9.80%)</title><rect x="461.2" y="147.0" width="115.7" height="15" fill="#50e150" rx="2" ry="2"/>
<text x="464.2" y="158.0">org/rocksdb/Ro..</text>
</g>
<g>
<title>org/rocksdb/RocksDB.put (10 samples, 9.80%)</title><rect x="461.2" y="131.0" width="115.7" height="15" fill="#51e251" rx="2" ry="2"/>
<text x="464.2" y="142.0">org/rocksdb/Ro..</text>
</g>
<g>
<title>org/rocksdb/util/BytewiseComparator.compare (10 samples, 9.80%)</title><rect x="461.2" y="115.0" width="115.7" height="15" fill="#5ced5c" rx="2" ry="2"/>
<text x="464.2" y="126.0">org/rocksdb/ut..</text>
</g>
<g>
<title>org/rocksdb/util/BytewiseComparator.compare (10 samples, 9.80%)</title><rect x="461.2" y="99.0" width="115.7" height="15" fill="#5ff05f" rx="2" ry="2"/>
<text x="464.2" y="110.0">org/rocksdb/ut..</text>
</g>
<g>
<title>org/rocksdb/AbstractSlice.data (10 samples, 9.80%)</title><rect x="461.2" y="83.0" width="115.7" height="15" fill="#60f160" rx="2" ry="2"/>
<text x="464.2" y="94.0">org/rocksdb/Ab..</text>
</g>
<g>
<title>org/rocksdb/Slice.data0 (10 samples, 9.80%)</title><rect x="461.2" y="67.0" width="115.7" height="15" fill="#6dfe6d" rx="2" ry="2"/>
<text x="464.2" y="78.0">org/rocksdb/Sl..</text>
</g>
<g>
<title>org/rocksdb/Slice.data0 (10 samples, 9.80%)</title><rect x="461.2" y="51.0" width="115.7" height="15" fill="#5aeb5a" rx="2" ry="2"/>
<text x="464.2" y="62.0">org/rocksdb/Sl..</text>
</g>
<g>
<title>byte[] (10 samples, 9.80%)</title><rect x="461.2" y="35.0" width="115.7" height="15" fill="#58c6c6" rx="2" ry="2"/>
<text x="464.2" y="46.0">byte[]</text>
</g>
<g>
<title>ru/mail/polis/dao/impl/RocksDAO.deepCopy (3 samples, 2.94%)</title><rect x="576.9" y="147.0" width="34.7" height="15" fill="#53e453" rx="2" ry="2"/>
<text x="579.9" y="158.0">ru..</text>
</g>
<g>
<title>java/nio/ByteBuffer.allocate (3 samples, 2.94%)</title><rect x="576.9" y="131.0" width="34.7" height="15" fill="#5aeb5a" rx="2" ry="2"/>
<text x="579.9" y="142.0">ja..</text>
</g>
<g>
<title>java.nio.HeapByteBuffer (3 samples, 2.94%)</title><rect x="576.9" y="115.0" width="34.7" height="15" fill="#6bd9d9" rx="2" ry="2"/>
<text x="579.9" y="126.0">ja..</text>
</g>
<g>
<title>one/nio/http/HttpSession.parseRequest (3 samples, 2.94%)</title><rect x="611.6" y="227.0" width="34.7" height="15" fill="#6bfc6b" rx="2" ry="2"/>
<text x="614.6" y="238.0">on..</text>
</g>
<g>
<title>one/nio/util/Utf8.read (3 samples, 2.94%)</title><rect x="611.6" y="211.0" width="34.7" height="15" fill="#5eef5e" rx="2" ry="2"/>
<text x="614.6" y="222.0">on..</text>
</g>
<g>
<title>one/nio/util/Utf8.read (3 samples, 2.94%)</title><rect x="611.6" y="195.0" width="34.7" height="15" fill="#64f564" rx="2" ry="2"/>
<text x="614.6" y="206.0">on..</text>
</g>
<g>
<title>char[] (1 samples, 0.98%)</title><rect x="611.6" y="179.0" width="11.5" height="15" fill="#61cfcf" rx="2" ry="2"/>
<text x="614.6" y="190.0"></text>
</g>
<g>
<title>java/lang/String.&lt;init&gt; (2 samples, 1.96%)</title><rect x="623.1" y="179.0" width="23.2" height="15" fill="#55e655" rx="2" ry="2"/>
<text x="626.1" y="190.0">j..</text>
</g>
<g>
<title>java/lang/String.&lt;init&gt; (2 samples, 1.96%)</title><rect x="623.1" y="163.0" width="23.2" height="15" fill="#67f867" rx="2" ry="2"/>
<text x="626.1" y="174.0">j..</text>
</g>
<g>
<title>java/lang/StringUTF16.compress (2 samples, 1.96%)</title><rect x="623.1" y="147.0" width="23.2" height="15" fill="#59ea59" rx="2" ry="2"/>
<text x="626.1" y="158.0">j..</text>
</g>
<g>
<title>byte[] (2 samples, 1.96%)</title><rect x="623.1" y="131.0" width="23.2" height="15" fill="#6ad8d8" rx="2" ry="2"/>
<text x="626.1" y="142.0">b..</text>
</g>
<g>
<title>one/nio/http/HttpSession.startParsingRequestBody (1 samples, 0.98%)</title><rect x="646.3" y="227.0" width="11.5" height="15" fill="#5dee5d" rx="2" ry="2"/>
<text x="649.3" y="238.0"></text>
</g>
<g>
<title>byte[] (1 samples, 0.98%)</title><rect x="646.3" y="211.0" width="11.5" height="15" fill="#63d1d1" rx="2" ry="2"/>
<text x="649.3" y="222.0"></text>
</g>
<g>
<title>one/nio/util/Utf8.read (1 samples, 0.98%)</title><rect x="657.8" y="227.0" width="11.6" height="15" fill="#59ea59" rx="2" ry="2"/>
<text x="660.8" y="238.0"></text>
</g>
<g>
<title>one/nio/util/Utf8.read (1 samples, 0.98%)</title><rect x="657.8" y="211.0" width="11.6" height="15" fill="#66f766" rx="2" ry="2"/>
<text x="660.8" y="222.0"></text>
</g>
<g>
<title>char[] (1 samples, 0.98%)</title><rect x="657.8" y="195.0" width="11.6" height="15" fill="#67d5d5" rx="2" ry="2"/>
<text x="660.8" y="206.0"></text>
</g>
<g>
<title>[NIO Selector #2 tid=2810] (23 samples, 22.55%)</title><rect x="669.4" y="307.0" width="266.1" height="15" fill="#fc7e7e" rx="2" ry="2"/>
<text x="672.4" y="318.0">[NIO Selector #2 tid=2810]</text>
</g>
<g>
<title>one/nio/server/SelectorThread.run (23 samples, 22.55%)</title><rect x="669.4" y="291.0" width="266.1" height="15" fill="#65f665" rx="2" ry="2"/>
<text x="672.4" y="302.0">one/nio/server/SelectorThread.run</text>
</g>
<g>
<title>one/nio/net/Session.process (23 samples, 22.55%)</title><rect x="669.4" y="275.0" width="266.1" height="15" fill="#6dfe6d" rx="2" ry="2"/>
<text x="672.4" y="286.0">one/nio/net/Session.process</text>
</g>
<g>
<title>one/nio/http/HttpSession.processRead (23 samples, 22.55%)</title><rect x="669.4" y="259.0" width="266.1" height="15" fill="#5eef5e" rx="2" ry="2"/>
<text x="672.4" y="270.0">one/nio/http/HttpSession.processRead</text>
</g>
<g>
<title>one/nio/http/HttpSession.processHttpBuffer (22 samples, 21.57%)</title><rect x="669.4" y="243.0" width="254.5" height="15" fill="#58e958" rx="2" ry="2"/>
<text x="672.4" y="254.0">one/nio/http/HttpSession.processHt..</text>
</g>
<g>
<title>one/nio/http/HttpSession.handleParsedRequest (14 samples, 13.73%)</title><rect x="669.4" y="227.0" width="162.0" height="15" fill="#59ea59" rx="2" ry="2"/>
<text x="672.4" y="238.0">one/nio/http/HttpSess..</text>
</g>
<g>
<title>one/nio/http/HttpServer.handleRequest (14 samples, 13.73%)</title><rect x="669.4" y="211.0" width="162.0" height="15" fill="#53e453" rx="2" ry="2"/>
<text x="672.4" y="222.0">one/nio/http/HttpServ..</text>
</g>
<g>
<title>RequestHandler0_entity.handleRequest (14 samples, 13.73%)</title><rect x="669.4" y="195.0" width="162.0" height="15" fill="#58e958" rx="2" ry="2"/>
<text x="672.4" y="206.0">RequestHandler0_entit..</text>
</g>
<g>
<title>one/nio/http/HttpSession.sendResponse (2 samples, 1.96%)</title><rect x="669.4" y="179.0" width="23.1" height="15" fill="#5aeb5a" rx="2" ry="2"/>
<text x="672.4" y="190.0">o..</text>
</g>
<g>
<title>one/nio/http/HttpSession.writeResponse (2 samples, 1.96%)</title><rect x="669.4" y="163.0" width="23.1" height="15" fill="#5ff05f" rx="2" ry="2"/>
<text x="672.4" y="174.0">o..</text>
</g>
<g>
<title>one/nio/http/Response.toBytes (2 samples, 1.96%)</title><rect x="669.4" y="147.0" width="23.1" height="15" fill="#68f968" rx="2" ry="2"/>
<text x="672.4" y="158.0">o..</text>
</g>
<g>
<title>one/nio/util/ByteArrayBuilder.&lt;init&gt; (2 samples, 1.96%)</title><rect x="669.4" y="131.0" width="23.1" height="15" fill="#6bfc6b" rx="2" ry="2"/>
<text x="672.4" y="142.0">o..</text>
</g>
<g>
<title>byte[] (2 samples, 1.96%)</title><rect x="669.4" y="115.0" width="23.1" height="15" fill="#5fcdcd" rx="2" ry="2"/>
<text x="672.4" y="126.0">b..</text>
</g>
<g>
<title>ru/mail/polis/service/impl/MyHttpServer.entity (12 samples, 11.76%)</title><rect x="692.5" y="179.0" width="138.9" height="15" fill="#54e554" rx="2" ry="2"/>
<text x="695.5" y="190.0">ru/mail/polis/ser..</text>
</g>
<g>
<title>ru/mail/polis/dao/impl/RocksDAO.upsert (12 samples, 11.76%)</title><rect x="692.5" y="163.0" width="138.9" height="15" fill="#56e756" rx="2" ry="2"/>
<text x="695.5" y="174.0">ru/mail/polis/dao..</text>
</g>
<g>
<title>org/rocksdb/RocksDB.put (10 samples, 9.80%)</title><rect x="692.5" y="147.0" width="115.7" height="15" fill="#63f463" rx="2" ry="2"/>
<text x="695.5" y="158.0">org/rocksdb/Ro..</text>
</g>
<g>
<title>org/rocksdb/RocksDB.put (10 samples, 9.80%)</title><rect x="692.5" y="131.0" width="115.7" height="15" fill="#5ff05f" rx="2" ry="2"/>
<text x="695.5" y="142.0">org/rocksdb/Ro..</text>
</g>
<g>
<title>org/rocksdb/util/BytewiseComparator.compare (10 samples, 9.80%)</title><rect x="692.5" y="115.0" width="115.7" height="15" fill="#53e453" rx="2" ry="2"/>
<text x="695.5" y="126.0">org/rocksdb/ut..</text>
</g>
<g>
<title>org/rocksdb/util/BytewiseComparator.compare (10 samples, 9.80%)</title><rect x="692.5" y="99.0" width="115.7" height="15" fill="#60f160" rx="2" ry="2"/>
<text x="695.5" y="110.0">org/rocksdb/ut..</text>
</g>
<g>
<title>org/rocksdb/AbstractSlice.data (10 samples, 9.80%)</title><rect x="692.5" y="83.0" width="115.7" height="15" fill="#50e150" rx="2" ry="2"/>
<text x="695.5" y="94.0">org/rocksdb/Ab..</text>
</g>
<g>
<title>org/rocksdb/Slice.data0 (10 samples, 9.80%)</title><rect x="692.5" y="67.0" width="115.7" height="15" fill="#68f968" rx="2" ry="2"/>
<text x="695.5" y="78.0">org/rocksdb/Sl..</text>
</g>
<g>
<title>org/rocksdb/Slice.data0 (10 samples, 9.80%)</title><rect x="692.5" y="51.0" width="115.7" height="15" fill="#53e453" rx="2" ry="2"/>
<text x="695.5" y="62.0">org/rocksdb/Sl..</text>
</g>
<g>
<title>byte[] (10 samples, 9.80%)</title><rect x="692.5" y="35.0" width="115.7" height="15" fill="#55c3c3" rx="2" ry="2"/>
<text x="695.5" y="46.0">byte[]</text>
</g>
<g>
<title>ru/mail/polis/dao/impl/RocksDAO.deepCopy (2 samples, 1.96%)</title><rect x="808.2" y="147.0" width="23.2" height="15" fill="#61f261" rx="2" ry="2"/>
<text x="811.2" y="158.0">r..</text>
</g>
<g>
<title>java/nio/ByteBuffer.allocate (2 samples, 1.96%)</title><rect x="808.2" y="131.0" width="23.2" height="15" fill="#5dee5d" rx="2" ry="2"/>
<text x="811.2" y="142.0">j..</text>
</g>
<g>
<title>java/nio/HeapByteBuffer.&lt;init&gt; (2 samples, 1.96%)</title><rect x="808.2" y="115.0" width="23.2" height="15" fill="#51e251" rx="2" ry="2"/>
<text x="811.2" y="126.0">j..</text>
</g>
<g>
<title>byte[] (2 samples, 1.96%)</title><rect x="808.2" y="99.0" width="23.2" height="15" fill="#50bebe" rx="2" ry="2"/>
<text x="811.2" y="110.0">b..</text>
</g>
<g>
<title>one/nio/http/HttpSession.parseRequest (4 samples, 3.92%)</title><rect x="831.4" y="227.0" width="46.2" height="15" fill="#53e453" rx="2" ry="2"/>
<text x="834.4" y="238.0">one/..</text>
</g>
<g>
<title>one/nio/http/Request.&lt;init&gt; (2 samples, 1.96%)</title><rect x="831.4" y="211.0" width="23.1" height="15" fill="#5bec5b" rx="2" ry="2"/>
<text x="834.4" y="222.0">o..</text>
</g>
<g>
<title>java.lang.String[] (2 samples, 1.96%)</title><rect x="831.4" y="195.0" width="23.1" height="15" fill="#67d5d5" rx="2" ry="2"/>
<text x="834.4" y="206.0">j..</text>
</g>
<g>
<title>one/nio/util/Utf8.read (2 samples, 1.96%)</title><rect x="854.5" y="211.0" width="23.1" height="15" fill="#6afb6a" rx="2" ry="2"/>
<text x="857.5" y="222.0">o..</text>
</g>
<g>
<title>one/nio/util/Utf8.read (2 samples, 1.96%)</title><rect x="854.5" y="195.0" width="23.1" height="15" fill="#59ea59" rx="2" ry="2"/>
<text x="857.5" y="206.0">o..</text>
</g>
<g>
<title>java.lang.String (2 samples, 1.96%)</title><rect x="854.5" y="179.0" width="23.1" height="15" fill="#5ecccc" rx="2" ry="2"/>
<text x="857.5" y="190.0">j..</text>
</g>
<g>
<title>one/nio/http/HttpSession.startParsingRequestBody (1 samples, 0.98%)</title><rect x="877.6" y="227.0" width="11.6" height="15" fill="#69fa69" rx="2" ry="2"/>
<text x="880.6" y="238.0"></text>
</g>
<g>
<title>byte[] (1 samples, 0.98%)</title><rect x="877.6" y="211.0" width="11.6" height="15" fill="#68d6d6" rx="2" ry="2"/>
<text x="880.6" y="222.0"></text>
</g>
<g>
<title>one/nio/util/Utf8.read (3 samples, 2.94%)</title><rect x="889.2" y="227.0" width="34.7" height="15" fill="#67f867" rx="2" ry="2"/>
<text x="892.2" y="238.0">on..</text>
</g>
<g>
<title>one/nio/util/Utf8.read (3 samples, 2.94%)</title><rect x="889.2" y="211.0" width="34.7" height="15" fill="#54e554" rx="2" ry="2"/>
<text x="892.2" y="222.0">on..</text>
</g>
<g>
<title>char[] (3 samples, 2.94%)</title><rect x="889.2" y="195.0" width="34.7" height="15" fill="#6bd9d9" rx="2" ry="2"/>
<text x="892.2" y="206.0">ch..</text>
</g>
<g>
<title>one/nio/net/Session.read (1 samples, 0.98%)</title><rect x="923.9" y="243.0" width="11.6" height="15" fill="#52e352" rx="2" ry="2"/>
<text x="926.9" y="254.0"></text>
</g>
<g>
<title>one/nio/net/NativeSocket.read (1 samples, 0.98%)</title><rect x="923.9" y="227.0" width="11.6" height="15" fill="#5eef5e" rx="2" ry="2"/>
<text x="926.9" y="238.0"></text>
</g>
<g>
<title>one/nio/net/SocketClosedException.&lt;init&gt; (1 samples, 0.98%)</title><rect x="923.9" y="211.0" width="11.6" height="15" fill="#5ced5c" rx="2" ry="2"/>
<text x="926.9" y="222.0"></text>
</g>
<g>
<title>java/net/SocketException.&lt;init&gt; (1 samples, 0.98%)</title><rect x="923.9" y="195.0" width="11.6" height="15" fill="#6afb6a" rx="2" ry="2"/>
<text x="926.9" y="206.0"></text>
</g>
<g>
<title>java/io/IOException.&lt;init&gt; (1 samples, 0.98%)</title><rect x="923.9" y="179.0" width="11.6" height="15" fill="#5bec5b" rx="2" ry="2"/>
<text x="926.9" y="190.0"></text>
</g>
<g>
<title>java/lang/Exception.&lt;init&gt; (1 samples, 0.98%)</title><rect x="923.9" y="163.0" width="11.6" height="15" fill="#6cfd6c" rx="2" ry="2"/>
<text x="926.9" y="174.0"></text>
</g>
<g>
<title>java/lang/Throwable.&lt;init&gt; (1 samples, 0.98%)</title><rect x="923.9" y="147.0" width="11.6" height="15" fill="#50e150" rx="2" ry="2"/>
<text x="926.9" y="158.0"></text>
</g>
<g>
<title>java/lang/Throwable.fillInStackTrace (1 samples, 0.98%)</title><rect x="923.9" y="131.0" width="11.6" height="15" fill="#61f261" rx="2" ry="2"/>
<text x="926.9" y="142.0"></text>
</g>
<g>
<title>java/lang/Throwable.fillInStackTrace (1 samples, 0.98%)</title><rect x="923.9" y="115.0" width="11.6" height="15" fill="#61f261" rx="2" ry="2"/>
<text x="926.9" y="126.0"></text>
</g>
<g>
<title>long[] (1 samples, 0.98%)</title><rect x="923.9" y="99.0" width="11.6" height="15" fill="#60cece" rx="2" ry="2"/>
<text x="926.9" y="110.0"></text>
</g>
<g>
<title>[NIO Selector #3 tid=2811] (22 samples, 21.57%)</title><rect x="935.5" y="307.0" width="254.5" height="15" fill="#f67777" rx="2" ry="2"/>
<text x="938.5" y="318.0">[NIO Selector #3 tid=2811]</text>
</g>
<g>
<title>one/nio/server/SelectorThread.run (22 samples, 21.57%)</title><rect x="935.5" y="291.0" width="254.5" height="15" fill="#54e554" rx="2" ry="2"/>
<text x="938.5" y="302.0">one/nio/server/SelectorThread.run</text>
</g>
<g>
<title>one/nio/net/Session.process (22 samples, 21.57%)</title><rect x="935.5" y="275.0" width="254.5" height="15" fill="#60f160" rx="2" ry="2"/>
<text x="938.5" y="286.0">one/nio/net/Session.process</text>
</g>
<g>
<title>one/nio/http/HttpSession.processRead (22 samples, 21.57%)</title><rect x="935.5" y="259.0" width="254.5" height="15" fill="#5ff05f" rx="2" ry="2"/>
<text x="938.5" y="270.0">one/nio/http/HttpSession.processRead</text>
</g>
<g>
<title>one/nio/http/HttpSession.processHttpBuffer (22 samples, 21.57%)</title><rect x="935.5" y="243.0" width="254.5" height="15" fill="#58e958" rx="2" ry="2"/>
<text x="938.5" y="254.0">one/nio/http/HttpSession.processHt..</text>
</g>
<g>
<title>one/nio/http/HttpSession.handleParsedRequest (20 samples, 19.61%)</title><rect x="935.5" y="227.0" width="231.4" height="15" fill="#66f766" rx="2" ry="2"/>
<text x="938.5" y="238.0">one/nio/http/HttpSession.handle..</text>
</g>
<g>
<title>one/nio/http/HttpServer.handleRequest (20 samples, 19.61%)</title><rect x="935.5" y="211.0" width="231.4" height="15" fill="#53e453" rx="2" ry="2"/>
<text x="938.5" y="222.0">one/nio/http/HttpServer.handleR..</text>
</g>
<g>
<title>RequestHandler0_entity.handleRequest (20 samples, 19.61%)</title><rect x="935.5" y="195.0" width="231.4" height="15" fill="#65f665" rx="2" ry="2"/>
<text x="938.5" y="206.0">RequestHandler0_entity.handleRe..</text>
</g>
<g>
<title>one/nio/http/HttpSession.sendResponse (2 samples, 1.96%)</title><rect x="935.5" y="179.0" width="23.1" height="15" fill="#67f867" rx="2" ry="2"/>
<text x="938.5" y="190.0">o..</text>
</g>
<g>
<title>one/nio/http/HttpSession.writeResponse (2 samples, 1.96%)</title><rect x="935.5" y="163.0" width="23.1" height="15" fill="#54e554" rx="2" ry="2"/>
<text x="938.5" y="174.0">o..</text>
</g>
<g>
<title>one/nio/net/Session.write (2 samples, 1.96%)</title><rect x="935.5" y="147.0" width="23.1" height="15" fill="#68f968" rx="2" ry="2"/>
<text x="938.5" y="158.0">o..</text>
</g>
<g>
<title>one.nio.net.Session$ArrayQueueItem (2 samples, 1.96%)</title><rect x="935.5" y="131.0" width="23.1" height="15" fill="#55c3c3" rx="2" ry="2"/>
<text x="938.5" y="142.0">o..</text>
</g>
<g>
<title>ru/mail/polis/service/impl/MyHttpServer.entity (18 samples, 17.65%)</title><rect x="958.6" y="179.0" width="208.3" height="15" fill="#6bfc6b" rx="2" ry="2"/>
<text x="961.6" y="190.0">ru/mail/polis/service/impl/..</text>
</g>
<g>
<title>java/lang/String.getBytes (1 samples, 0.98%)</title><rect x="958.6" y="163.0" width="11.6" height="15" fill="#64f564" rx="2" ry="2"/>
<text x="961.6" y="174.0"></text>
</g>
<g>
<title>java/lang/StringCoding.encode (1 samples, 0.98%)</title><rect x="958.6" y="147.0" width="11.6" height="15" fill="#5eef5e" rx="2" ry="2"/>
<text x="961.6" y="158.0"></text>
</g>
<g>
<title>java/lang/StringCoding.encodeUTF8 (1 samples, 0.98%)</title><rect x="958.6" y="131.0" width="11.6" height="15" fill="#5ced5c" rx="2" ry="2"/>
<text x="961.6" y="142.0"></text>
</g>
<g>
<title>java/util/Arrays.copyOf (1 samples, 0.98%)</title><rect x="958.6" y="115.0" width="11.6" height="15" fill="#5ff05f" rx="2" ry="2"/>
<text x="961.6" y="126.0"></text>
</g>
<g>
<title>byte[] (1 samples, 0.98%)</title><rect x="958.6" y="99.0" width="11.6" height="15" fill="#58c6c6" rx="2" ry="2"/>
<text x="961.6" y="110.0"></text>
</g>
<g>
<title>one.nio.http.Response (1 samples, 0.98%)</title><rect x="970.2" y="163.0" width="11.6" height="15" fill="#55c3c3" rx="2" ry="2"/>
<text x="973.2" y="174.0"></text>
</g>
<g>
<title>one/nio/http/Response.&lt;init&gt; (1 samples, 0.98%)</title><rect x="981.8" y="163.0" width="11.5" height="15" fill="#64f564" rx="2" ry="2"/>
<text x="984.8" y="174.0"></text>
</g>
<g>
<title>java.lang.String (1 samples, 0.98%)</title><rect x="981.8" y="147.0" width="11.5" height="15" fill="#56c4c4" rx="2" ry="2"/>
<text x="984.8" y="158.0"></text>
</g>
<g>
<title>ru/mail/polis/dao/impl/RocksDAO.upsert (15 samples, 14.71%)</title><rect x="993.3" y="163.0" width="173.6" height="15" fill="#57e857" rx="2" ry="2"/>
<text x="996.3" y="174.0">ru/mail/polis/dao/impl..</text>
</g>
<g>
<title>org/rocksdb/RocksDB.put (11 samples, 10.78%)</title><rect x="993.3" y="147.0" width="127.3" height="15" fill="#54e554" rx="2" ry="2"/>
<text x="996.3" y="158.0">org/rocksdb/Rock..</text>
</g>
<g>
<title>org/rocksdb/RocksDB.put (11 samples, 10.78%)</title><rect x="993.3" y="131.0" width="127.3" height="15" fill="#63f463" rx="2" ry="2"/>
<text x="996.3" y="142.0">org/rocksdb/Rock..</text>
</g>
<g>
<title>org/rocksdb/util/BytewiseComparator.compare (11 samples, 10.78%)</title><rect x="993.3" y="115.0" width="127.3" height="15" fill="#54e554" rx="2" ry="2"/>
<text x="996.3" y="126.0">org/rocksdb/util..</text>
</g>
<g>
<title>org/rocksdb/util/BytewiseComparator.compare (11 samples, 10.78%)</title><rect x="993.3" y="99.0" width="127.3" height="15" fill="#60f160" rx="2" ry="2"/>
<text x="996.3" y="110.0">org/rocksdb/util..</text>
</g>
<g>
<title>org/rocksdb/AbstractSlice.data (11 samples, 10.78%)</title><rect x="993.3" y="83.0" width="127.3" height="15" fill="#61f261" rx="2" ry="2"/>
<text x="996.3" y="94.0">org/rocksdb/Abst..</text>
</g>
<g>
<title>org/rocksdb/Slice.data0 (11 samples, 10.78%)</title><rect x="993.3" y="67.0" width="127.3" height="15" fill="#55e655" rx="2" ry="2"/>
<text x="996.3" y="78.0">org/rocksdb/Slic..</text>
</g>
<g>
<title>org/rocksdb/Slice.data0 (11 samples, 10.78%)</title><rect x="993.3" y="51.0" width="127.3" height="15" fill="#54e554" rx="2" ry="2"/>
<text x="996.3" y="62.0">org/rocksdb/Slic..</text>
</g>
<g>
<title>byte[] (11 samples, 10.78%)</title><rect x="993.3" y="35.0" width="127.3" height="15" fill="#54c2c2" rx="2" ry="2"/>
<text x="996.3" y="46.0">byte[]</text>
</g>
<g>
<title>ru/mail/polis/dao/impl/RocksDAO.deepCopy (4 samples, 3.92%)</title><rect x="1120.6" y="147.0" width="46.3" height="15" fill="#65f665" rx="2" ry="2"/>
<text x="1123.6" y="158.0">ru/m..</text>
</g>
<g>
<title>java/nio/ByteBuffer.allocate (4 samples, 3.92%)</title><rect x="1120.6" y="131.0" width="46.3" height="15" fill="#6afb6a" rx="2" ry="2"/>
<text x="1123.6" y="142.0">java..</text>
</g>
<g>
<title>java.nio.HeapByteBuffer (4 samples, 3.92%)</title><rect x="1120.6" y="115.0" width="46.3" height="15" fill="#58c6c6" rx="2" ry="2"/>
<text x="1123.6" y="126.0">java..</text>
</g>
<g>
<title>one/nio/http/HttpSession.parseRequest (1 samples, 0.98%)</title><rect x="1166.9" y="227.0" width="11.5" height="15" fill="#58e958" rx="2" ry="2"/>
<text x="1169.9" y="238.0"></text>
</g>
<g>
<title>one/nio/http/Request.&lt;init&gt; (1 samples, 0.98%)</title><rect x="1166.9" y="211.0" width="11.5" height="15" fill="#5ced5c" rx="2" ry="2"/>
<text x="1169.9" y="222.0"></text>
</g>
<g>
<title>java.lang.String[] (1 samples, 0.98%)</title><rect x="1166.9" y="195.0" width="11.5" height="15" fill="#60cece" rx="2" ry="2"/>
<text x="1169.9" y="206.0"></text>
</g>
<g>
<title>one/nio/util/Utf8.read (1 samples, 0.98%)</title><rect x="1178.4" y="227.0" width="11.6" height="15" fill="#50e150" rx="2" ry="2"/>
<text x="1181.4" y="238.0"></text>
</g>
<g>
<title>one/nio/util/Utf8.read (1 samples, 0.98%)</title><rect x="1178.4" y="211.0" width="11.6" height="15" fill="#5ff05f" rx="2" ry="2"/>
<text x="1181.4" y="222.0"></text>
</g>
<g>
<title>java/lang/String.&lt;init&gt; (1 samples, 0.98%)</title><rect x="1178.4" y="195.0" width="11.6" height="15" fill="#58e958" rx="2" ry="2"/>
<text x="1181.4" y="206.0"></text>
</g>
<g>
<title>java/lang/String.&lt;init&gt; (1 samples, 0.98%)</title><rect x="1178.4" y="179.0" width="11.6" height="15" fill="#68f968" rx="2" ry="2"/>
<text x="1181.4" y="190.0"></text>
</g>
<g>
<title>java/lang/StringUTF16.compress (1 samples, 0.98%)</title><rect x="1178.4" y="163.0" width="11.6" height="15" fill="#63f463" rx="2" ry="2"/>
<text x="1181.4" y="174.0"></text>
</g>
<g>
<title>byte[] (1 samples, 0.98%)</title><rect x="1178.4" y="147.0" width="11.6" height="15" fill="#52c0c0" rx="2" ry="2"/>
<text x="1181.4" y="158.0"></text>
</g>
</g>
</svg>
